<svg height="512pt" viewBox="-61 0 512 512" width="512pt" xmlns="http://www.w3.org/2000/svg"><path d="m390 362v90h-98.699219l-60 60h-141.300781v-90l60-150zm0 0" fill="#ffa78f"/><path d="m390 362v90h-98.699219l-60 60h-96.300781v-202.5l15-37.5zm0 0" fill="#f89580"/><path d="m120 197h30v60h-30zm0 0" fill="#ff4b00"/><path d="m135 197h15v60h-15zm0 0" fill="#dd3400"/><path d="m30 0v212h210v-212zm0 0" fill="#ff7816"/><path d="m135 0h105v212h-105zm0 0" fill="#ff4b00"/><path d="m190.5 86.5-55.5 55.800781-15 15-40.5-40.800781 21-21 19.5 19.199219 15-15 34.5-34.199219zm0 0" fill="#ede9e8"/><g fill="#ffbfab"><path d="m150 242v120c0 33-27 60-60 60v-180zm0 0"/><path d="m86.25 512h-37.5c-18.640625 0-33.75-15.109375-33.75-33.75s15.109375-34.25 33.75-34.25h37.5c18.640625 0 33.75 15.609375 33.75 34.25s-15.109375 33.75-33.75 33.75zm0 0"/><path d="m120 343.25c0-18.640625-15.109375-34.25-33.75-34.25 18.640625 0 33.75-14.613281 33.75-33.25 0-18.640625-15.109375-33.75-33.75-33.75h-52.5c-18.640625 0-33.75 15.109375-33.75 33.75 0 18.636719 15.109375 33.25 33.75 33.25-18.640625 0-33.75 15.609375-33.75 34.25 0 18.636719 15.109375 33.75 33.75 33.75-18.640625 0-33.75 15.109375-33.75 33.75 0 18.636719 15.109375 33.25 33.75 33.25h52.5c18.640625 0 33.75-14.613281 33.75-33.25 0-18.640625-15.109375-33.75-33.75-33.75 18.640625 0 33.75-15.113281 33.75-33.75zm0 0"/></g><path d="m190.5 86.5-55.5 55.800781v-42.601562l34.5-34.199219zm0 0" fill="#dfd7d5"/><path d="m390 302v60h-180c-33 0-60-27-60-60v60c0 15-5.398438 28.800781-15 39.300781-10.800781 12.597657-27 20.699219-45 20.699219v-180h141.300781l60 60zm0 0" fill="#ffcebf"/><path d="m390 302v60h-180c-33 0-60-27-60-60v60c0 15-5.398438 28.800781-15 39.300781v-159.300781h96.300781l60 60zm0 0" fill="#ffbfab"/></svg>